<?xml version="1.0" encoding="utf-8"?>
<!-- Generator: Adobe Illustrator 16.0.0, SVG Export Plug-In . SVG Version: 6.00 Build 0)  -->
<!DOCTYPE svg PUBLIC "-//W3C//DTD SVG 1.1//EN" "http://www.w3.org/Graphics/SVG/1.1/DTD/svg11.dtd">
<svg version="1.1" id="Layer_1" xmlns="http://www.w3.org/2000/svg" xmlns:xlink="http://www.w3.org/1999/xlink" x="0px" y="0px"
	 width="864px" height="864px" viewBox="0 0 864 864" enable-background="new 0 0 864 864" xml:space="preserve">
<path fill-rule="evenodd" clip-rule="evenodd" d="M688.483,318.365c7.497,9.815,12.745,19.948,16.472,30.865
	c0.744,2.177,1.36,4.448,1.635,6.724c0.625,5.18-1.281,7.078-6.488,6.676c-2.879-0.223-5.752-0.897-8.619-0.847
	c-8.068,0.143-16.135,0.498-24.193,0.926c-1.172,0.062-2.429,0.808-3.42,1.542c-4.38,3.243-8.636,6.652-13.012,9.9
	c-11.91,8.843-19.231,20.79-23.748,34.696c-7.32,22.543-12.119,45.615-14.508,69.182c-1.517,14.973-2.605,29.992-4.279,44.947
	c-2.016,18.003-7.439,35.003-16.031,50.992c-4.658,8.668-9.197,17.404-13.621,26.195c-2.897,5.759-7.25,9.992-13.082,13.637
	c-0.344-3.266-0.781-6.188-0.936-9.123c-0.543-10.277-0.668-20.587-1.594-30.827c-0.536-5.941-3.355-11.274-7.463-15.746
	c-0.987-1.075-2.172-1.968-4.146-3.73c-0.232,3.41-0.848,5.906-0.494,8.256c3.33,22.166,0.001,43.521-6.953,64.618
	c-9.143,27.736-19.617,54.861-33.464,80.659c-7.021,13.081-11.542,27.095-10.671,42.229c0.338,5.859,1.781,11.648,2.369,17.504
	c0.287,2.861-0.23,5.803-0.791,8.705c-6.564-7.409-10.393-15.863-12.777-25.117c-4.058-15.751-8.038-31.536-12.723-47.104
	c-1.766-5.871-5.098-11.362-8.312-16.664c-1.4-2.306-4.062-4.206-6.572-5.409c-6.996-3.354-12.957,0.256-12.705,7.98
	c0.27,8.305,1.439,16.581,2.273,24.863c0.521,5.173,1.208,10.329,1.688,15.504c0.123,1.327-0.258,2.701-0.518,5.066
	c-2.312-3.249-3.805-5.965-5.87-8.137c-9.826-10.334-19.158-21.269-29.884-30.587c-17.05-14.812-29.101-32.552-36.043-53.887
	c-6.791-20.869-13.25-41.849-20.319-62.622c-1.858-5.459-4.776-10.865-8.388-15.342c-4.718-5.848-12.606-6.777-19.275-3.182
	c-11.685,6.303-17.58,17.1-21.595,29.109c-2.741,8.197-0.982,16.198,1.867,24.056c1.181,3.257,2.354,6.532,3.232,9.878
	c0.397,1.515,0.067,3.223,0.067,4.992c-8.539-2.068-14.347-7.127-19.756-12.693c-13.426-13.812-23.395-29.596-26.82-48.873
	c-0.967-5.441-1.67-11.003-1.741-16.52c-0.218-16.938,0.288-33.892-0.175-50.82c-0.385-14.121-1.414-28.246-2.764-42.311
	c-1.104-11.487-5.018-22.322-10.23-32.574c-8.232-16.189-17.84-31.513-30.973-44.248c-3.949-3.829-8.559-7.071-13.206-10.051
	c-3.311-2.123-7.287-2.216-11.059-0.729c-3.544,1.397-7.235,2.602-10.476,4.537c-2.851,1.704-5.156,3.151-8.525,1.148
	c-3.328-1.979-4.401-4.893-4.59-8.374c-0.526-9.689,2.032-18.823,5.373-27.75c1.892-5.056,4.219-9.948,6.632-15.57
	c-5.78-0.332-11.363-0.824-16.952-0.921c-5.074-0.088-10.167,0.542-15.23,0.326c-5.021-0.214-6.573-3.592-3.278-7.419
	c3.299-3.832,6.991-7.496,11.078-10.449c14.154-10.229,29.864-16.68,47.459-17.79c27.292-1.721,53.609,1.587,77.792,15.542
	c2.403,1.387,4.929,2.563,7.409,3.815c0.925,0.467,1.883,0.872,3.257,1.503c-0.429-1.273-0.663-2.233-1.062-3.118
	c-7.458-16.539-12.662-33.755-15.066-51.738c-2.031-15.193-0.533-30.319,1.993-45.325c3.691-21.933,10.212-42.989,20.986-62.535
	c14.151-25.671,33.47-46.058,60.815-57.884c15.836-6.848,32.481-9.84,49.706-9.921c28.457-0.134,56.199,3.759,82.055,16.215
	c42.48,20.462,67.742,54.53,77.543,100.368c3.383,15.817,3.362,31.797,1.32,47.738c-1.789,13.973-3.485,28.026-6.574,41.74
	c-1.932,8.577-1.028,16.694-0.275,25.05c0.287,3.192,2.126,4.217,5.064,4.334c7.261,0.29,14.008-1.884,20.541-4.551
	c8.676-3.54,17.173-7.521,25.702-11.409c13.275-6.051,27.003-10.554,41.688-10.978c20.419-0.589,39.364,4.673,56.752,15.437
	c0.588,0.363,1.363,0.742,1.594,1.302c0.625,1.517,1.789,3.493,1.275,4.62c-0.594,1.303-2.65,2.363-4.248,2.703
	c-3.936,0.838-8.039,0.922-11.955,1.828C700.751,314.769,694.934,316.58,688.483,318.365z"/>
<path fill-rule="evenodd" clip-rule="evenodd" fill="#FFFFFF" d="M300.016,607.516c-10.717-11.889-18.644-25.054-21.708-40.874
	c-3.055-15.774-1.036-31.644-1.213-47.479c-0.221-19.817-0.291-39.688-1.846-59.424c-1.496-18.992-9.285-36.205-19.334-52.258
	c-8.265-13.203-17.343-25.813-29.438-35.907c-6.176-5.154-13.109-9.011-21.209-9.471c-6.928-0.393-13.862,0.51-21.033,5.11
	c1.049-5.525,1.669-10.138,2.825-14.611c2.593-10.026,6.331-19.587,12.416-28.099c1.971-2.757,0.867-5.986-2.811-6.986
	c-4.104-1.116-8.365-1.748-12.598-2.275c-4.241-0.528-8.53-0.666-13.641-1.035c1.581-0.946,2.625-1.643,3.731-2.224
	c18.696-9.823,38.486-12.756,59.511-11.093c19.233,1.521,36.735,7.389,53.755,16.042c6.792,3.453,14.572,5.028,21.988,7.159
	c2.758,0.793,5.609,0.196,7.445-2.475c2.02-2.94,1.201-5.8-0.026-8.869c-5.059-12.65-10.511-25.184-14.746-38.112
	c-7.17-21.89-6.216-44.27-2.099-66.625c4.235-22.996,12.041-44.632,24.844-64.323c16.296-25.064,38.625-41.611,68.18-47.568
	c13.119-2.645,26.41-2.966,39.799-1.898c14.82,1.182,29.519,3.027,43.582,7.901c45.314,15.705,73.648,47.019,84.627,93.712
	c3.874,16.479,4.326,33.228,2.361,50.102c-1.393,11.955-1.975,24.002-2.999,36.001c-0.364,4.26-1.355,8.499-1.371,12.75
	c-0.024,6.668,0.12,13.393,0.964,19.995c0.924,7.235,5.052,10.249,12.952,10.985c11.135,1.038,21.311-2.452,31.29-6.638
	c11.311-4.743,22.448-9.897,33.761-14.634c21.508-9.007,42.989-6.805,64.392,0.549c0.195,0.067,0.336,0.295,0.764,0.689
	c-5.812,1.781-11.449,3.428-17.033,5.238c-9.547,3.096-10.078,5.308-3.806,13.052c6.837,8.441,11.237,18.179,14.909,28.688
	c-11.485-1.165-22.518-1.663-33.252,0.991c-4.894,1.21-9.653,3.785-13.889,6.617c-4.59,3.068-8.548,7.101-12.693,10.811
	c-12.4,11.096-18.74,25.693-23.302,41.188c-6.355,21.588-10.853,43.556-12.729,66.029c-1.231,14.765-2.489,29.532-4.11,44.258
	c-1.711,15.547-6.347,30.279-13.314,44.307c-3.78,7.605-7.235,15.374-10.494,22.338c-0.969-6.003-1.732-12.768-3.215-19.369
	c-1.535-6.837-5.629-12.393-10.498-17.33c-3.164-3.207-6.818-5.623-11.465-3.616c-4.672,2.019-6.25,6.417-6.584,11.055
	c-0.772,10.741-0.977,21.525-1.891,32.251c-1.197,14.051-5.764,27.331-10.317,40.555c-7.952,23.098-16.858,45.789-28.119,67.538
	c-3.79,7.321-6.294,15.308-9.421,23.08c-1.537-5.279-2.799-10.852-4.791-16.148c-2.76-7.339-5.613-14.713-9.273-21.624
	c-3.501-6.611-9.082-11.326-16.654-13.26c-10.822-2.762-21.396,4.576-21.871,15.715c-0.255,5.971,0.455,11.984,0.734,18.07
	c0.232-0.049-0.051,0.09-0.128,0.016c-8.507-8.213-16.899-16.548-25.515-24.645c-11.559-10.862-18.25-24.588-24.025-39.025
	c-8.303-20.76-14.816-42.073-20.866-63.564c-1.395-4.955-3.405-9.908-6.053-14.307c-9.707-16.13-28.95-19.121-43.184-6.754
	c-10.954,9.516-17.789,21.609-20.151,35.943C299.407,598.104,300.016,602.697,300.016,607.516z M435.617,191.003
	c0.406,15.052,5.457,29.691,13.103,43.532c5.537,10.023,12.15,19.201,21.679,25.915c12.123,8.542,26.854,7.367,37.387-3.083
	c9.813-9.735,12.98-22.087,12.548-35.289c-0.515-15.735-6.722-29.662-15.841-42.311c-8.102-11.238-17.932-20.409-31.592-24.372
	c-9.922-2.879-19.105-1.189-26.719,6.143C438.121,169.3,435.785,179.291,435.617,191.003z M409.459,197.688
	c-0.059-15.204-2.48-29.088-17.322-37.585c-5.841-3.344-11.661-5.017-18.187-3.241c-12.751,3.47-20.857,12.544-27.158,23.412
	c-9.062,15.63-11.863,32.768-10.51,50.542c0.686,9.004,2.782,17.842,8.043,25.523c5.722,8.352,13.333,12.542,23.72,10.852
	c9.124-1.484,15.966-6.724,21.666-13.448C403.391,237.604,409.178,218.588,409.459,197.688z M551.624,222.196
	c-0.364-0.067-0.729-0.134-1.093-0.202c-9.016,26.509-21.039,51.553-35.809,75.783c-1.031-1.255-1.557-1.998-2.184-2.641
	c-4.923-5.056-9.69-10.282-14.867-15.065c-3.037-2.806-5.243-2.28-8.057,0.842c-0.619,0.688-1.141,1.463-1.727,2.183
	c-6.732,8.27-13.433,16.565-20.236,24.776c-1.109,1.339-2.678,2.299-4.17,3.549c-0.605-0.976-0.866-1.494-1.215-1.945
	c-6.933-8.974-13.479-18.288-20.951-26.789c-5.305-6.036-9.445-5.091-13.146,2.06c-4.623,8.931-8.898,18.042-13.332,27.071
	c-0.432,0.877-0.916,1.728-1.523,2.87c-0.604-0.979-1.028-1.539-1.319-2.159c-4.47-9.527-8.849-19.099-13.458-28.557
	c-0.703-1.441-2.415-3.225-3.742-3.295c-1.354-0.071-3.057,1.564-4.146,2.844c-1.092,1.281-1.573,3.07-2.399,4.595
	c-4.004,7.388-8.034,14.762-11.982,22.009c-0.611-0.136-0.787-0.131-0.809-0.187c-2.395-6.138-4.763-12.286-7.171-18.418
	c-0.803-2.046-1.651-4.079-2.583-6.069c-1.027-2.193-2.553-4.491-5.166-3.645c-1.746,0.566-3.208,2.544-4.369,4.193
	c-0.817,1.161-0.946,2.821-1.324,4.274c-1.09,4.191-2.15,8.39-3.274,12.791c-21.293-20.678-37.42-43.277-33.966-74.782
	c-4.011,10.958-4.927,22.184-2.576,33.614c2.245,10.913,7.932,20.092,14.57,28.875c6.663,8.816,16.418,15.134,20.604,25.991
	c0.996,2.582,4.733,2.19,6.164-0.376c0.657-1.18,0.998-2.571,1.297-3.908c1.261-5.638,2.452-11.292,3.87-17.872
	c0.843,1.968,1.311,2.997,1.728,4.046c2.652,6.662,5.153,13.391,8.049,19.946c0.628,1.422,2.632,3.032,4.055,3.083
	c1.409,0.05,3.411-1.442,4.239-2.81c3.356-5.547,6.374-11.3,9.491-16.99c1.652-3.014,3.255-6.055,5.046-9.393
	c1.54,3.279,2.782,6.149,4.211,8.923c3.233,6.28,6.412,12.596,9.89,18.74c3.294,5.817,7.593,5.683,11.014-0.118
	c0.646-1.095,1.21-2.241,1.77-3.383c3.974-8.102,7.929-16.213,11.911-24.31c0.736-1.495,1.576-2.938,2.555-4.752
	c1.475,1.572,2.697,2.651,3.65,3.93c5.949,7.985,11.982,15.914,17.694,24.067c3.622,5.169,6.554,6.227,11.354,2.125
	c4.819-4.119,9.222-8.789,13.409-13.567c4.548-5.191,8.636-10.784,13.507-16.938c4.778,5.732,9.474,10.99,13.733,16.581
	c3.898,5.118,6.938,5.631,10.625,0.483c3.9-5.445,7.561-11.125,10.723-17.025c9.312-17.379,17.417-35.272,20.74-54.918
	C551.489,229.005,551.408,225.576,551.624,222.196z"/>
</svg>
